<svg width="24" height="24" viewBox="0 0 24 24" fill="none" xmlns="http://www.w3.org/2000/svg">
<path d="M9.93807 14.0618C7.64731 11.771 7.13007 9.48025 7.01338 8.56246C6.98077 8.30868 7.06811 8.05419 7.24966 7.8739L9.10345 6.02094C9.37615 5.74841 9.42454 5.32369 9.22014 4.9968L6.26855 0.413627C6.04242 0.0516608 5.57811 -0.0789763 5.19642 0.111972L0.45807 2.34356C0.149405 2.49555 -0.032148 2.8235 0.00289757 3.16576C0.251173 5.52439 1.27945 11.3225 6.97738 17.0208C12.6753 22.7191 18.4726 23.747 20.8324 23.9953C21.1747 24.0303 21.5026 23.8488 21.6546 23.5401L23.8862 18.8018C24.0764 18.4209 23.9467 17.9578 23.5862 17.7313L19.003 14.7805C18.6763 14.5759 18.2516 14.624 17.9789 14.8964L16.1259 16.7502C15.9457 16.9317 15.6912 17.0191 15.4374 16.9865C14.5196 16.8698 12.2288 16.3525 9.93807 14.0618Z" fill="white"/>
<path d="M19.0345 12.8276C18.5774 12.8276 18.2069 12.4571 18.2069 12C18.203 8.57364 15.4264 5.79699 12 5.79311C11.5429 5.79311 11.1724 5.42259 11.1724 4.96553C11.1724 4.50846 11.5429 4.13794 12 4.13794C16.3401 4.14273 19.8573 7.65989 19.8621 12C19.8621 12.4571 19.4915 12.8276 19.0345 12.8276Z" fill="white"/>
<path d="M23.1724 12.8276C22.7154 12.8276 22.3448 12.4571 22.3448 12C22.3384 6.28936 17.7106 1.66156 12 1.65517C11.5429 1.65517 11.1724 1.28465 11.1724 0.827586C11.1724 0.370523 11.5429 0 12 0C18.6244 0.0072976 23.9927 5.37561 24 12C24 12.2195 23.9128 12.43 23.7576 12.5852C23.6024 12.7404 23.3919 12.8276 23.1724 12.8276Z" fill="white"/>
</svg>
