<svg width="39" height="39" viewBox="0 0 39 39" fill="none" xmlns="http://www.w3.org/2000/svg">
<rect width="39" height="39" rx="5" fill="#5F5F5F"/>
<rect width="39" height="39" rx="5" fill="#F2720C"/>
<path d="M25.12 19.3C24.3 19.3 22.66 20.94 19.38 20.94C16.1 20.94 14.46 19.3 13.64 19.3C12.738 19.3 12 20.038 12 20.94C12 21.76 12.492 22.17 12.82 22.334C13.804 22.908 16.92 24.22 16.92 24.22L13.394 28.648C13.394 28.648 12.738 29.386 12.738 29.96C12.738 30.862 13.476 31.6 14.378 31.6C15.198 31.6 15.608 31.026 15.608 31.026L19.38 26.68L23.07 31.026C23.07 31.026 23.48 31.6 24.3 31.6C25.202 31.6 25.94 30.862 25.94 29.96C25.94 29.468 25.284 28.648 25.284 28.648L21.84 24.22C21.84 24.22 24.956 22.908 25.94 22.334C26.268 22.088 26.76 21.76 26.76 20.94C26.76 20.038 26.022 19.3 25.12 19.3Z" fill="white"/>
<path d="M19.3806 7C16.1826 7 13.6406 9.542 13.6406 12.74C13.6406 15.938 16.1826 18.48 19.3806 18.48C22.5786 18.48 25.1206 15.938 25.1206 12.74C25.1206 9.542 22.5786 7 19.3806 7ZM19.3806 15.61C17.8226 15.61 16.5106 14.298 16.5106 12.74C16.5106 11.182 17.8226 9.87 19.3806 9.87C20.9386 9.87 22.2506 11.182 22.2506 12.74C22.2506 14.298 20.9386 15.61 19.3806 15.61Z" fill="white"/>
</svg>
