<svg width="70" height="70" viewBox="0 0 70 70" fill="none" xmlns="http://www.w3.org/2000/svg">
<circle cx="35" cy="35" r="35" fill="white" fill-opacity="0.8"/>
<path d="M20.4333 37.3167C20.0836 37.3167 19.8 37.6002 19.8 37.95V48.0833C19.8 48.4331 20.0836 48.7167 20.4333 48.7167C20.7831 48.7167 21.0667 48.4331 21.0667 48.0833V37.95C21.0667 37.6002 20.7831 37.3167 20.4333 37.3167Z" fill="#8D8D8D"/>
<path d="M25.1453 32.25C25.4951 32.25 25.7786 31.9664 25.7786 31.6167C25.7789 31.5474 25.766 31.4784 25.7406 31.4141C25.6651 31.1698 25.4505 30.9951 25.196 30.9707C23.6594 30.8269 22.4502 29.5964 22.3333 28.0573C22.3367 28.0344 22.3367 28.0109 22.3333 27.9877V27.9181C22.3302 27.8844 22.3302 27.8504 22.3333 27.8167V24.65H24.9301C25.2798 24.65 25.5634 24.3664 25.5634 24.0167C25.5634 23.6669 25.2798 23.3833 24.9301 23.3833H21.7C21.3502 23.3833 21.0667 23.6669 21.0667 24.0167V26.8413C20.2626 26.1223 19.8022 25.0953 19.8 24.0167V20.2167H27.4C28.6422 20.2173 29.8059 20.8249 30.516 21.8442C30.7225 22.1108 31.1014 22.1686 31.3781 21.9763C31.6549 21.7839 31.7325 21.4088 31.5547 21.1224C30.6081 19.7624 29.0566 18.9512 27.4 18.95H19.8C19.1005 18.95 18.5333 19.5172 18.5333 20.2167V24.0167C18.5247 25.8508 19.5084 27.5467 21.1047 28.45C21.2386 29.4102 21.6836 30.3002 22.3714 30.9833H20.4333C17.9847 30.9833 16 32.9681 16 35.4167V48.0833C16 48.4331 16.2836 48.7167 16.6333 48.7167C16.9831 48.7167 17.2667 48.4331 17.2667 48.0833V35.4167C17.2667 33.6679 18.6846 32.25 20.4333 32.25H25.1453Z" fill="#8D8D8D"/>
<path d="M24.8667 36.5312L24.4105 34.7833H26.4754C26.8251 34.7833 27.1087 34.4998 27.1087 34.15C27.1087 33.8002 26.8251 33.5167 26.4754 33.5167H23.6C23.4052 33.5157 23.2206 33.6045 23.0996 33.7573C22.9797 33.9116 22.9376 34.1126 22.9855 34.3022L23.6189 36.8355C23.703 37.18 24.0503 37.3912 24.3948 37.3071C24.7393 37.2233 24.9505 36.876 24.8667 36.5312Z" fill="#8D8D8D"/>
<path d="M49.5667 37.3167C49.2169 37.3167 48.9333 37.6002 48.9333 37.95V48.0833C48.9333 48.4331 49.2169 48.7167 49.5667 48.7167C49.9164 48.7167 50.2 48.4331 50.2 48.0833V37.95C50.2 37.6002 49.9164 37.3167 49.5667 37.3167Z" fill="#8D8D8D"/>
<path d="M51.4667 31.4141V25.2833C51.4667 21.7855 48.6312 18.95 45.1333 18.95H43.8667C41.9994 18.9534 40.2287 19.7809 39.0279 21.2109C38.8631 21.3816 38.8074 21.6299 38.8835 21.8544C38.9596 22.0789 39.1547 22.2422 39.3891 22.2775C39.6238 22.3127 39.8582 22.2141 39.9971 22.0217C40.9579 20.8794 42.3739 20.2188 43.8667 20.2167H45.1333C47.9317 20.2167 50.2 22.485 50.2 25.2833V31.0276C50.0565 31.0276 49.9109 31.0149 49.763 30.9895H47.6098C48.4599 30.153 48.9367 29.0094 48.9333 27.8167V24.0167C48.9333 23.6669 48.6498 23.3833 48.3 23.3833H43.5373C43.1876 23.3833 42.904 23.6669 42.904 24.0167C42.904 24.3664 43.1876 24.65 43.5373 24.65H47.6667V27.8167C47.6741 29.4535 46.4331 30.8262 44.804 30.9833C44.5495 31.0078 44.3349 31.1825 44.2594 31.4268C44.234 31.4911 44.2211 31.5601 44.2214 31.6293C44.2214 31.9791 44.5049 32.2627 44.8547 32.2627H46.5899L44.1833 36.5884C44.0136 36.8942 44.1243 37.2802 44.4304 37.4496C44.525 37.5034 44.6317 37.5316 44.7406 37.5319C44.9691 37.5316 45.1797 37.4082 45.2917 37.209L48.0402 32.25H49.7061C50.0194 32.2624 50.329 32.3221 50.6243 32.4272H50.675C51.9206 32.8926 52.7429 34.0869 52.7333 35.4167V48.0833C52.7333 48.4331 53.0169 48.7167 53.3667 48.7167C53.7164 48.7167 54 48.4331 54 48.0833V35.4167C53.9988 33.7053 53.0129 32.1473 51.4667 31.4141Z" fill="#8D8D8D"/>
<path d="M40.7 37.3167H38.5783C39.5654 36.52 40.2587 35.4167 40.5479 34.1815C42.1983 33.303 43.2306 31.5864 43.2333 29.7167V28.45C43.2333 25.6516 40.965 23.3833 38.1667 23.3833H28.0333C27.3338 23.3833 26.7667 23.9505 26.7667 24.65V29.7167C26.7694 31.5864 27.8017 33.303 29.4521 34.1815C29.7413 35.4167 30.4346 36.52 31.4217 37.3167H29.3C26.8514 37.3167 24.8667 39.3014 24.8667 41.75V54.4167C24.8667 54.7664 25.1502 55.05 25.5 55.05C25.8498 55.05 26.1333 54.7664 26.1333 54.4167V41.75C26.1333 40.0012 27.5512 38.5833 29.3 38.5833H40.7C42.4488 38.5833 43.8667 40.0012 43.8667 41.75V54.4167C43.8667 54.7664 44.1502 55.05 44.5 55.05C44.8498 55.05 45.1333 54.7664 45.1333 54.4167V41.75C45.1333 39.3014 43.1486 37.3167 40.7 37.3167ZM28.0333 29.7167V24.65H38.1667C40.2652 24.65 41.9667 26.3515 41.9667 28.45V29.7167C41.9645 30.7953 41.504 31.8223 40.7 32.5413V27.8167C40.7 27.4669 40.4164 27.1833 40.0667 27.1833H29.9333C29.5836 27.1833 29.3 27.4669 29.3 27.8167V32.5413C28.496 31.8223 28.0355 30.7953 28.0333 29.7167ZM30.6427 33.7192C30.6461 33.6963 30.6461 33.6728 30.6427 33.6496C30.6032 33.4276 30.5778 33.2034 30.5667 32.9783V28.45H39.4333V32.9783C39.4241 33.2034 39.4009 33.4276 39.3638 33.6496C39.36 33.6728 39.36 33.6963 39.3638 33.7192C38.9704 35.8159 37.1397 37.3352 35.0062 37.3352C32.873 37.3352 31.0423 35.8159 30.6489 33.7192H30.6427Z" fill="#8D8D8D"/>
<path d="M37.0522 39.85C36.7129 39.7662 36.37 39.9731 36.2855 40.3123L35.7728 42.3833H34.2272L33.7333 40.3312C33.6863 40.1039 33.5187 39.9205 33.2967 39.8534C33.0743 39.786 32.8334 39.8457 32.668 40.009C32.5028 40.1719 32.4404 40.4122 32.5047 40.6355L33.138 43.0674L32.4667 50.167C32.4493 50.3687 32.5294 50.5663 32.6819 50.6989L34.5819 52.3583C34.821 52.5683 35.1791 52.5683 35.4181 52.3583L37.3181 50.6989C37.4706 50.5663 37.5507 50.3687 37.5333 50.167L36.9 43.0674L37.5333 40.6355C37.5788 40.4669 37.5531 40.2876 37.4619 40.1388C37.371 39.9904 37.2225 39.8859 37.0522 39.85ZM35 51.0409L33.7333 49.9833L34.2906 43.65H35.6587L36.2667 49.9833L35 51.0409Z" fill="#8D8D8D"/>
<path d="M29.3 43.65C28.9502 43.65 28.6667 43.9336 28.6667 44.2833V54.4167C28.6667 54.7664 28.9502 55.05 29.3 55.05C29.6498 55.05 29.9333 54.7664 29.9333 54.4167V44.2833C29.9333 43.9336 29.6498 43.65 29.3 43.65Z" fill="#8D8D8D"/>
<path d="M40.7 43.65C40.3502 43.65 40.0667 43.9336 40.0667 44.2833V54.4167C40.0667 54.7664 40.3502 55.05 40.7 55.05C41.0498 55.05 41.3333 54.7664 41.3333 54.4167V44.2833C41.3333 43.9336 41.0498 43.65 40.7 43.65Z" fill="#8D8D8D"/>
</svg>
