<svg width="38" height="38" viewBox="0 0 38 38" fill="none" xmlns="http://www.w3.org/2000/svg">
<g clip-path="url(#clip0)">
<path d="M4.43338 21.3167C4.08363 21.3167 3.80005 21.6002 3.80005 21.95V32.0833C3.80005 32.4331 4.08363 32.7167 4.43338 32.7167C4.78314 32.7167 5.06672 32.4331 5.06672 32.0833V21.95C5.06672 21.6002 4.78314 21.3167 4.43338 21.3167Z" fill="#8D8D8D"/>
<path d="M9.1453 16.25C9.49505 16.25 9.77863 15.9664 9.77863 15.6167C9.77894 15.5474 9.76595 15.4784 9.74059 15.4141C9.66514 15.1698 9.45052 14.9951 9.19601 14.9707C7.65937 14.8269 6.45023 13.5964 6.33333 12.0573C6.33673 12.0344 6.33673 12.0109 6.33333 11.9877V11.9181C6.33024 11.8844 6.33024 11.8504 6.33333 11.8167V8.65001H8.93006C9.27982 8.65001 9.5634 8.36643 9.5634 8.01668C9.5634 7.66692 9.27982 7.38335 8.93006 7.38335H5.7C5.35024 7.38335 5.06667 7.66692 5.06667 8.01668V10.8413C4.26263 10.1223 3.80216 9.09532 3.8 8.01668V4.21668H11.4C12.6422 4.2173 13.8059 4.82496 14.516 5.84423C14.7225 6.1108 15.1014 6.16863 15.3781 5.97628C15.6549 5.78393 15.7325 5.40882 15.5547 5.12246C14.6081 3.7624 13.0566 2.95125 11.4 2.95001H3.8C3.10049 2.95001 2.53333 3.51717 2.53333 4.21668V8.01668C2.52467 9.85081 3.50838 11.5467 5.1047 12.45C5.23861 13.4102 5.68361 14.3002 6.37137 14.9833H4.43333C1.98473 14.9833 0 16.9681 0 19.4167V32.0833C0 32.4331 0.283577 32.7167 0.633333 32.7167C0.983089 32.7167 1.26667 32.4331 1.26667 32.0833V19.4167C1.26667 17.6679 2.68455 16.25 4.43333 16.25H9.1453Z" fill="#8D8D8D"/>
<path d="M8.86671 20.5312L8.41057 18.7833H10.4754C10.8252 18.7833 11.1087 18.4998 11.1087 18.15C11.1087 17.8002 10.8252 17.5167 10.4754 17.5167H7.60004C7.40521 17.5157 7.2206 17.6045 7.09968 17.7573C6.97969 17.9116 6.93764 18.1126 6.98557 18.3022L7.6189 20.8355C7.70302 21.18 8.0503 21.3912 8.3948 21.3071C8.7393 21.2233 8.95051 20.876 8.86671 20.5312Z" fill="#8D8D8D"/>
<path d="M33.5667 21.3167C33.2169 21.3167 32.9333 21.6002 32.9333 21.95V32.0833C32.9333 32.4331 33.2169 32.7167 33.5667 32.7167C33.9164 32.7167 34.2 32.4331 34.2 32.0833V21.95C34.2 21.6002 33.9164 21.3167 33.5667 21.3167Z" fill="#8D8D8D"/>
<path d="M35.4667 15.4141V9.28335C35.4667 5.78548 32.6312 2.95001 29.1333 2.95001H27.8667C25.9994 2.95341 24.2287 3.78095 23.0279 5.2109C22.8631 5.3816 22.8074 5.62993 22.8835 5.85444C22.9596 6.07895 23.1547 6.24223 23.3891 6.27749C23.6238 6.31274 23.8582 6.21409 23.9971 6.02174C24.9579 4.87939 26.3739 4.21884 27.8667 4.21668H29.1333C31.9317 4.21668 34.2 6.48499 34.2 9.28335V15.0276C34.0565 15.0276 33.9108 15.0149 33.763 14.9895H31.6098C32.4599 14.153 32.9367 13.0094 32.9333 11.8167V8.01668C32.9333 7.66692 32.6497 7.38335 32.3 7.38335H27.5373C27.1876 7.38335 26.904 7.66692 26.904 8.01668C26.904 8.36643 27.1876 8.65001 27.5373 8.65001H31.6667V11.8167C31.6741 13.4535 30.4331 14.8262 28.804 14.9833C28.5495 15.0078 28.3349 15.1825 28.2594 15.4268C28.234 15.4911 28.2211 15.5601 28.2214 15.6294C28.2214 15.9791 28.5049 16.2627 28.8547 16.2627H30.5899L28.1833 20.5884C28.0135 20.8943 28.1243 21.2802 28.4304 21.4497C28.525 21.5035 28.6317 21.5316 28.7406 21.5319C28.9691 21.5316 29.1797 21.4082 29.2917 21.2091L32.0402 16.25H33.7061C34.0194 16.2624 34.3289 16.3221 34.6243 16.4272H34.675C35.9206 16.8926 36.7429 18.0869 36.7333 19.4167V32.0833C36.7333 32.4331 37.0169 32.7167 37.3667 32.7167C37.7164 32.7167 38 32.4331 38 32.0833V19.4167C37.9988 17.7053 37.0129 16.1473 35.4667 15.4141Z" fill="#8D8D8D"/>
<path d="M24.7 21.3167H22.5783C23.5654 20.5201 24.2587 19.4167 24.5479 18.1816C26.1983 17.303 27.2306 15.5864 27.2334 13.7167V12.45C27.2334 9.65167 24.9651 7.38336 22.1667 7.38336H12.0334C11.3339 7.38336 10.7667 7.95052 10.7667 8.65003V13.7167C10.7695 15.5864 11.8017 17.303 13.4522 18.1816C13.7413 19.4167 14.4347 20.5201 15.4218 21.3167H13.3C10.8514 21.3167 8.8667 23.3014 8.8667 25.75V38.4167C8.8667 38.7665 9.15028 39.05 9.50003 39.05C9.84979 39.05 10.1334 38.7665 10.1334 38.4167V25.75C10.1334 24.0012 11.5513 22.5834 13.3 22.5834H24.7C26.4488 22.5834 27.8667 24.0012 27.8667 25.75V38.4167C27.8667 38.7665 28.1503 39.05 28.5 39.05C28.8498 39.05 29.1334 38.7665 29.1334 38.4167V25.75C29.1334 23.3014 27.1486 21.3167 24.7 21.3167ZM12.0334 13.7167V8.65003H22.1667C24.2652 8.65003 25.9667 10.3515 25.9667 12.45V13.7167C25.9645 14.7953 25.5041 15.8223 24.7 16.5413V11.8167C24.7 11.4669 24.4165 11.1834 24.0667 11.1834H13.9334C13.5836 11.1834 13.3 11.4669 13.3 11.8167V16.5413C12.496 15.8223 12.0355 14.7953 12.0334 13.7167ZM14.6428 17.7193C14.6462 17.6964 14.6462 17.6729 14.6428 17.6497C14.6032 17.4276 14.5778 17.2034 14.5667 16.9783V12.45H23.4334V16.9783C23.4241 17.2034 23.4009 17.4276 23.3638 17.6497C23.3601 17.6729 23.3601 17.6964 23.3638 17.7193C22.9704 19.8159 21.1397 21.3352 19.0062 21.3352C16.873 21.3352 15.0423 19.8159 14.649 17.7193H14.6428Z" fill="#8D8D8D"/>
<path d="M21.0522 23.85C20.7129 23.7662 20.37 23.9731 20.2856 24.3123L19.7728 26.3833H18.2272L17.7334 24.3312C17.6863 24.1039 17.5187 23.9205 17.2967 23.8534C17.0743 23.786 16.8334 23.8457 16.668 24.0089C16.5029 24.1719 16.4404 24.4122 16.5047 24.6355L17.1381 27.0674L16.4667 34.167C16.4494 34.3686 16.5295 34.5662 16.6819 34.6989L18.5819 36.3583C18.821 36.5683 19.1791 36.5683 19.4181 36.3583L21.3181 34.6989C21.4706 34.5662 21.5507 34.3686 21.5334 34.167L20.9 27.0674L21.5334 24.6355C21.5788 24.4669 21.5531 24.2876 21.4619 24.1388C21.371 23.9904 21.2226 23.8859 21.0522 23.85ZM19 35.0409L17.7334 33.9833L18.2906 27.65H19.6587L20.2667 33.9833L19 35.0409Z" fill="#8D8D8D"/>
<path d="M13.3 27.65C12.9502 27.65 12.6666 27.9336 12.6666 28.2834V38.4167C12.6666 38.7664 12.9502 39.05 13.3 39.05C13.6497 39.05 13.9333 38.7664 13.9333 38.4167V28.2834C13.9333 27.9336 13.6497 27.65 13.3 27.65Z" fill="#8D8D8D"/>
<path d="M24.7 27.65C24.3502 27.65 24.0667 27.9336 24.0667 28.2834V38.4167C24.0667 38.7664 24.3502 39.05 24.7 39.05C25.0497 39.05 25.3333 38.7664 25.3333 38.4167V28.2834C25.3333 27.9336 25.0497 27.65 24.7 27.65Z" fill="#8D8D8D"/>
</g>
<defs>
<clipPath id="clip0">
<rect width="38" height="38" fill="white"/>
</clipPath>
</defs>
</svg>
