<svg width="70" height="70" viewBox="0 0 70 70" fill="none" xmlns="http://www.w3.org/2000/svg">
<circle cx="35" cy="35" r="35" fill="white" fill-opacity="0.8"/>
<path d="M23.7188 17.1875H24.9062V18.375H23.7188V17.1875Z" fill="#8D8D8D"/>
<path d="M20.75 20.1562H21.9375V21.3438H20.75V20.1562Z" fill="#8D8D8D"/>
<path d="M26.6875 20.1562H27.875V21.3438H26.6875V20.1562Z" fill="#8D8D8D"/>
<path d="M21.3723 22.8491L22.2119 22.0095L23.0514 22.8491L22.2119 23.6887L21.3723 22.8491Z" fill="#8D8D8D"/>
<path d="M25.5707 18.6517L26.4103 17.8121L27.2499 18.6517L26.4103 19.4912L25.5707 18.6517Z" fill="#8D8D8D"/>
<path d="M25.5703 22.8496L26.4099 22.01L27.2495 22.8496L26.4099 23.6891L25.5703 22.8496Z" fill="#8D8D8D"/>
<path d="M21.3728 18.6512L22.2124 17.8116L23.0519 18.6512L22.2124 19.4907L21.3728 18.6512Z" fill="#8D8D8D"/>
<path d="M33.2187 23.125C33.0613 23.125 32.9102 23.1876 32.7989 23.2989C32.6875 23.4103 32.625 23.5613 32.625 23.7188V26.3108C30.7873 26.6504 29.0444 27.3824 27.5153 28.4569L25.9196 26.8612C25.8645 26.8061 25.799 26.7624 25.727 26.7325C25.655 26.7027 25.5778 26.6873 25.4998 26.6873C25.4218 26.6873 25.3446 26.7027 25.2726 26.7325C25.2005 26.7624 25.1351 26.8061 25.0799 26.8612L22.7049 29.2362C22.6498 29.2914 22.606 29.3568 22.5762 29.4289C22.5464 29.5009 22.531 29.5781 22.531 29.6561C22.531 29.7341 22.5464 29.8113 22.5762 29.8833C22.606 29.9554 22.6498 30.0208 22.7049 30.076L24.3006 31.6717C22.76 33.8632 21.9346 36.4774 21.9375 39.1562C21.9375 46.359 27.7973 52.2188 35 52.2188C42.2027 52.2188 48.0625 46.359 48.0625 39.1562C48.0654 36.4774 47.24 33.8631 45.6993 31.6716L47.295 30.0759C47.3501 30.0207 47.3939 29.9553 47.4237 29.8833C47.4535 29.8112 47.4689 29.734 47.4689 29.656C47.4689 29.5781 47.4535 29.5008 47.4237 29.4288C47.3939 29.3568 47.3501 29.2913 47.295 29.2362L44.92 26.8612C44.8649 26.806 44.7994 26.7623 44.7274 26.7325C44.6553 26.7026 44.5781 26.6873 44.5001 26.6873C44.4222 26.6873 44.3449 26.7026 44.2729 26.7325C44.2009 26.7623 44.1354 26.806 44.0803 26.8612L42.4846 28.4569C40.9555 27.3824 39.2127 26.6504 37.375 26.3108V23.7188C37.375 23.5613 37.3124 23.4103 37.2011 23.2989C37.0897 23.1876 36.9387 23.125 36.7812 23.125H35.5937V22.8281C35.5937 21.962 35.2497 21.1314 34.6373 20.519C34.0248 19.9066 33.1942 19.5625 32.3281 19.5625C31.462 19.5625 30.6314 19.9066 30.019 20.519C29.4066 21.1314 29.0625 21.962 29.0625 22.8281C29.0625 23.3793 28.8436 23.9079 28.4538 24.2976C28.0641 24.6873 27.5355 24.9062 26.9844 24.9062C26.4332 24.9062 25.9046 24.6873 25.5149 24.2976C25.1252 23.9079 24.9062 23.3793 24.9062 22.8281V20.1562H23.7187V22.8281C23.7187 23.257 23.8032 23.6816 23.9673 24.0778C24.1314 24.474 24.372 24.834 24.6752 25.1373C24.9785 25.4405 25.3385 25.6811 25.7347 25.8452C26.1309 26.0093 26.5555 26.0938 26.9844 26.0938C27.4132 26.0938 27.8379 26.0093 28.2341 25.8452C28.6303 25.6811 28.9903 25.4405 29.2935 25.1373C29.5968 24.834 29.8373 24.474 30.0014 24.0778C30.1655 23.6816 30.25 23.257 30.25 22.8281C30.25 22.5552 30.3037 22.285 30.4082 22.0329C30.5126 21.7807 30.6657 21.5516 30.8587 21.3587C31.0516 21.1657 31.2807 21.0126 31.5329 20.9082C31.785 20.8038 32.0552 20.75 32.3281 20.75C32.601 20.75 32.8713 20.8038 33.1234 20.9082C33.3755 21.0126 33.6046 21.1657 33.7976 21.3587C33.9905 21.5516 34.1436 21.7807 34.2481 22.0329C34.3525 22.285 34.4062 22.5552 34.4062 22.8281V23.125H33.2187ZM23.9646 29.6562L25.5 28.1209L26.5677 29.1887C26.0146 29.6573 25.5011 30.1708 25.0324 30.724L23.9646 29.6562ZM35 51.0312C28.4521 51.0312 23.125 45.7041 23.125 39.1562C23.125 32.6084 28.4521 27.2812 35 27.2812C41.5479 27.2812 46.875 32.6084 46.875 39.1562C46.875 45.7041 41.5479 51.0312 35 51.0312ZM44.5 28.1209L46.0353 29.6562L44.9676 30.724C44.4989 30.1708 43.9854 29.6573 43.4323 29.1887L44.5 28.1209ZM36.1875 26.1483C35.7962 26.1129 35.4003 26.0938 35 26.0938C34.5997 26.0938 34.2038 26.1129 33.8125 26.1483V24.3125H36.1875V26.1483Z" fill="#8D8D8D"/>
<path d="M35 28.4688C29.107 28.4688 24.3125 33.2633 24.3125 39.1562C24.3125 45.0492 29.107 49.8438 35 49.8438C40.893 49.8438 45.6875 45.0492 45.6875 39.1562C45.6875 33.2633 40.893 28.4688 35 28.4688ZM35 48.6562C33.1211 48.6562 31.2843 48.0991 29.7221 47.0552C28.1598 46.0113 26.9422 44.5276 26.2231 42.7917C25.5041 41.0558 25.316 39.1457 25.6825 37.3029C26.0491 35.4601 26.9539 33.7673 28.2825 32.4387C29.6111 31.1101 31.3038 30.2053 33.1466 29.8388C34.9895 29.4722 36.8996 29.6604 38.6355 30.3794C40.3714 31.0984 41.8551 32.3161 42.899 33.8783C43.9428 35.4406 44.5 37.2773 44.5 39.1562C44.4972 41.6749 43.4954 44.0897 41.7144 45.8706C39.9334 47.6516 37.5187 48.6534 35 48.6562V48.6562Z" fill="#8D8D8D"/>
<path d="M35 37.375C34.6332 37.3746 34.2752 37.4873 33.9748 37.6978C33.6744 37.9083 33.4463 38.2063 33.3214 38.5511C33.1965 38.896 33.1811 39.271 33.2771 39.625C33.3731 39.979 33.576 40.2948 33.858 40.5293C34.14 40.7638 34.4875 40.9056 34.8531 40.9355C35.2186 40.9653 35.5845 40.8816 35.9008 40.696C36.2171 40.5103 36.4685 40.2316 36.6206 39.8978C36.7728 39.5641 36.8183 39.1915 36.751 38.831L42.4961 35.5142L41.9024 34.4858L36.1568 37.803C35.8348 37.5265 35.4244 37.3747 35 37.375V37.375ZM35 39.75C34.8826 39.75 34.7678 39.7152 34.6701 39.6499C34.5725 39.5847 34.4964 39.492 34.4514 39.3835C34.4065 39.275 34.3947 39.1556 34.4177 39.0404C34.4406 38.9252 34.4971 38.8194 34.5802 38.7364C34.6632 38.6534 34.769 38.5968 34.8842 38.5739C34.9993 38.551 35.1187 38.5628 35.2272 38.6077C35.3357 38.6526 35.4284 38.7287 35.4937 38.8264C35.5589 38.924 35.5938 39.0388 35.5938 39.1563C35.5936 39.3137 35.531 39.4646 35.4197 39.5759C35.3083 39.6872 35.1574 39.7498 35 39.75V39.75Z" fill="#8D8D8D"/>
<path d="M34.4062 30.8438H35.5938V32.625H34.4062V30.8438Z" fill="#8D8D8D"/>
<path d="M34.4062 45.6875H35.5938V47.4688H34.4062V45.6875Z" fill="#8D8D8D"/>
<path d="M30.3291 32.2541L31.3575 31.6604L32.2481 33.2029L31.2197 33.7967L30.3291 32.2541Z" fill="#8D8D8D"/>
<path d="M37.7507 45.109L38.7791 44.5152L39.6697 46.0578L38.6414 46.6515L37.7507 45.109Z" fill="#8D8D8D"/>
<path d="M27.5038 35.5144L28.0975 34.486L29.6401 35.3766L29.0464 36.405L27.5038 35.5144Z" fill="#8D8D8D"/>
<path d="M40.3586 42.9363L40.9524 41.908L42.4949 42.7986L41.9012 43.827L40.3586 42.9363Z" fill="#8D8D8D"/>
<path d="M26.6875 38.5625H28.4688V39.75H26.6875V38.5625Z" fill="#8D8D8D"/>
<path d="M41.5312 38.5625H43.3125V39.75H41.5312V38.5625Z" fill="#8D8D8D"/>
<path d="M27.504 42.7976L29.0466 41.9069L29.6403 42.9353L28.0978 43.826L27.504 42.7976Z" fill="#8D8D8D"/>
<path d="M30.3288 46.0586L31.2195 44.5161L32.2478 45.1098L31.3572 46.6524L30.3288 46.0586Z" fill="#8D8D8D"/>
<path d="M37.751 33.2037L38.6416 31.6612L39.67 32.2549L38.7794 33.7975L37.751 33.2037Z" fill="#8D8D8D"/>
</svg>
