<svg width="70" height="70" viewBox="0 0 70 70" fill="none" xmlns="http://www.w3.org/2000/svg">
<circle cx="35" cy="35" r="35" fill="white" fill-opacity="0.8"/>
<path d="M48.3 19.1667C48.3 17.3935 46.9065 16 45.1333 16H21.7C19.9268 16 18.5333 17.3935 18.5333 19.1667V24.2333H23.6V50.8333C23.6 52.6065 24.9935 54 26.7667 54H48.3C50.0732 54 51.4667 52.6065 51.4667 50.8333V47.6667H48.3V19.1667ZM23.6 22.9667H19.8V19.1667C19.8 18.0899 20.6232 17.2667 21.7 17.2667C22.7768 17.2667 23.6 18.0899 23.6 19.1667V22.9667ZM24.8667 50.8333V19.1667C24.8667 18.4699 24.6134 17.8366 24.2333 17.2667H45.1333C46.2101 17.2667 47.0333 18.0899 47.0333 19.1667V47.6667H28.6667V50.8333C28.6667 51.9101 27.8435 52.7333 26.7667 52.7333C25.6899 52.7333 24.8667 51.9101 24.8667 50.8333ZM50.2 48.9333V50.8333C50.2 51.9101 49.3768 52.7333 48.3 52.7333H29.3C29.7435 52.1634 29.9333 51.5301 29.9333 50.8333V48.9333H50.2Z" fill="#8D8D8D"/>
<path d="M40.7 36.2667H45.7667V37.5333H40.7V36.2667Z" fill="#8D8D8D"/>
<path d="M26.1333 36.2667H39.4333V37.5333H26.1333V36.2667Z" fill="#8D8D8D"/>
<path d="M33.1 38.8H45.7667V40.0667H33.1V38.8Z" fill="#8D8D8D"/>
<path d="M26.1333 38.8H31.8333V40.0667H26.1333V38.8Z" fill="#8D8D8D"/>
<path d="M37.5333 43.8667H45.7667V45.1333H37.5333V43.8667Z" fill="#8D8D8D"/>
<path d="M26.1333 43.8667H36.2667V45.1333H26.1333V43.8667Z" fill="#8D8D8D"/>
<path d="M34.8732 28.9199L35.6333 29.4268L36.3935 28.9199C38.6732 27.4 40.0667 24.8033 40.0667 22.0801V19.9899L35.6333 18.5333L31.2 19.9899V22.0801C31.2 24.8033 32.5935 27.4 34.8732 28.9199ZM32.4667 20.8768L35.6333 19.8L38.8 20.8768V22.0801C38.8 24.4232 37.6601 26.5768 35.6967 27.9065H35.6333L35.5699 27.8435C33.6065 26.5768 32.4667 24.3601 32.4667 22.0167V20.8768Z" fill="#8D8D8D"/>
<path d="M37.5333 22.3967L36.2667 22.2699C36.1399 23.3467 35.5699 24.3601 34.6833 24.9935L35.3801 26.0699C36.5833 25.1833 37.4065 23.8533 37.5333 22.3967Z" fill="#8D8D8D"/>
<path d="M29.9333 41.3333H45.7667V42.6H29.9333V41.3333Z" fill="#8D8D8D"/>
<path d="M26.1333 41.3333H28.6667V42.6H26.1333V41.3333Z" fill="#8D8D8D"/>
<path d="M33.1 33.7333H45.7667V35H33.1V33.7333Z" fill="#8D8D8D"/>
<path d="M26.1333 33.7333H31.8333V35H26.1333V33.7333Z" fill="#8D8D8D"/>
<path d="M31.2 30.5667H40.0667V31.8333H31.2V30.5667Z" fill="#8D8D8D"/>
</svg>
