<svg width="70" height="70" viewBox="0 0 70 70" fill="none" xmlns="http://www.w3.org/2000/svg">
<circle cx="35" cy="35" r="35" fill="white" fill-opacity="0.8"/>
<path d="M35.7996 22.9369C32.7407 22.9877 29.8135 24.1907 27.6028 26.3055C25.357 28.4391 24.0931 31.2189 24.0439 34.1325C24.02 35.6165 24.2948 37.0902 24.852 38.4659C25.4092 39.8415 26.2373 41.0911 27.2872 42.1402C29.0314 43.8764 29.9357 46.2816 29.7613 48.6566H29.0961C28.9386 48.6566 28.7876 48.7192 28.6763 48.8305C28.5649 48.9419 28.5023 49.0929 28.5023 49.2504C28.5023 49.4078 28.5649 49.5589 28.6763 49.6702C28.7876 49.7816 28.9386 49.8441 29.0961 49.8441H30.4336V53.0324C30.4361 53.1913 30.501 53.3428 30.6142 53.4544C30.7273 53.566 30.8798 53.6286 31.0387 53.6289H40.9613C41.1203 53.6286 41.2728 53.5659 41.386 53.4543C41.4992 53.3426 41.564 53.191 41.5664 53.032V49.8437H42.9041C43.0615 49.8437 43.2125 49.7812 43.3239 49.6698C43.4352 49.5585 43.4978 49.4075 43.4978 49.25C43.4978 49.0925 43.4352 48.9415 43.3239 48.8302C43.2125 48.7188 43.0615 48.6562 42.9041 48.6562H42.0991C41.9034 46.207 42.7683 44.0246 44.6177 42.1859C44.6196 42.1841 44.6215 42.1745 44.6233 42.1726C46.7422 40.0085 47.9091 37.2205 47.9091 34.3292C47.9091 31.358 46.7151 28.5428 44.547 26.4056C42.2304 24.1221 39.123 22.8896 35.7996 22.9369ZM40.3789 52.4414H31.6211V49.8437H40.3789V52.4414ZM43.7776 41.3466C41.7273 43.3867 40.7231 45.9102 40.9094 48.6562H30.9509C31.1216 45.9102 30.0928 43.2571 28.1242 41.298C27.1878 40.3633 26.449 39.2498 25.952 38.0236C25.455 36.7974 25.2098 35.4838 25.2312 34.1609C25.275 31.5678 26.4077 29.0826 28.4207 27.1702C30.4151 25.2606 33.0564 24.1735 35.8172 24.1261C38.8199 24.0823 41.6249 25.1918 43.7133 27.2507C45.6533 29.163 46.7216 31.6831 46.7216 34.3337C46.7216 36.9111 45.6761 39.4062 43.7776 41.3466Z" fill="#8D8D8D"/>
<path d="M35.7031 20.5411C35.8606 20.5411 36.0116 20.4785 36.123 20.3672C36.2343 20.2558 36.2969 20.1048 36.2969 19.9473V16.968C36.2969 16.8105 36.2343 16.6595 36.123 16.5481C36.0116 16.4368 35.8606 16.3742 35.7031 16.3742C35.5457 16.3742 35.3946 16.4368 35.2833 16.5481C35.1719 16.6595 35.1094 16.8105 35.1094 16.968V19.9473C35.1094 20.1048 35.1719 20.2558 35.2833 20.3672C35.3946 20.4785 35.5457 20.5411 35.7031 20.5411Z" fill="#8D8D8D"/>
<path d="M49.5875 22.7311L46.8776 25.0862C46.7587 25.1895 46.6858 25.3358 46.6748 25.4929C46.6638 25.6501 46.7157 25.8051 46.8191 25.924C46.9224 26.0428 47.0687 26.1158 47.2258 26.1268C47.383 26.1377 47.538 26.0858 47.6569 25.9825L50.3667 23.6275C50.4256 23.5763 50.4738 23.514 50.5086 23.4442C50.5434 23.3744 50.5641 23.2985 50.5695 23.2207C50.575 23.1429 50.565 23.0648 50.5403 22.9908C50.5155 22.9169 50.4764 22.8485 50.4253 22.7896C50.3741 22.7308 50.3118 22.6826 50.242 22.6478C50.1722 22.613 50.0963 22.5923 50.0185 22.5869C49.9407 22.5814 49.8626 22.5914 49.7886 22.6161C49.7147 22.6409 49.6463 22.68 49.5875 22.7311V22.7311Z" fill="#8D8D8D"/>
<path d="M24.589 25.7181C24.7077 25.7182 24.8236 25.6826 24.9219 25.6161C25.0202 25.5496 25.0963 25.4552 25.1404 25.3451C25.1845 25.2349 25.1945 25.1141 25.1693 24.9981C25.1441 24.8822 25.0847 24.7764 24.9988 24.6946L22.4328 22.2485C22.3764 22.1947 22.3099 22.1525 22.2372 22.1244C22.1644 22.0963 22.0869 22.0828 22.0089 22.0847C21.931 22.0865 21.8542 22.1037 21.7829 22.1353C21.7116 22.1668 21.6472 22.2121 21.5934 22.2686C21.5396 22.325 21.4974 22.3915 21.4693 22.4642C21.4412 22.5369 21.4277 22.6145 21.4295 22.6924C21.4314 22.7704 21.4486 22.8472 21.4802 22.9185C21.5117 22.9898 21.557 23.0542 21.6134 23.108L24.1794 25.5541C24.2897 25.6596 24.4364 25.7183 24.589 25.7181V25.7181Z" fill="#8D8D8D"/>
<path d="M42.916 34.3677C43.9609 32.6585 44.1431 31.1435 43.4291 30.1018C42.715 29.06 41.2364 28.6837 39.2654 29.0419C39.2431 29.0459 39.2209 29.051 39.199 29.0552C39.1901 29.0347 39.1816 29.0132 39.1725 28.9929C38.3535 27.1646 37.2069 26.1577 35.944 26.1577C35.8621 26.1581 35.7804 26.1629 35.699 26.1719C35.3555 25.8649 34.9116 25.6943 34.4509 25.6921C33.9902 25.6898 33.5446 25.8563 33.1982 26.1599C32.8517 26.4636 32.6284 26.8835 32.5702 27.3405C32.512 27.7975 32.623 28.26 32.8823 28.6408C32.8151 28.7747 32.7504 28.9127 32.6879 29.055C32.6661 29.0509 32.6439 29.0458 32.6222 29.0419C30.6512 28.6838 29.1724 29.0602 28.4586 30.1018C27.7447 31.1434 27.9267 32.6585 28.9716 34.3677C29.148 34.6562 29.3462 34.9455 29.5637 35.234C29.547 35.2562 29.5303 35.2784 29.5138 35.3008C29.0875 35.2086 28.6424 35.267 28.2542 35.466C27.8661 35.6649 27.5588 35.9922 27.3848 36.3922C27.2107 36.7921 27.1805 37.24 27.2994 37.6596C27.4183 38.0793 27.6789 38.4448 28.0368 38.694C27.9997 39.3319 28.1422 39.903 28.4583 40.3639C28.9962 41.1487 29.9681 41.5559 31.2576 41.5559C31.7155 41.5527 32.1721 41.5086 32.6222 41.4239C32.6441 41.4199 32.6667 41.4148 32.6885 41.4106C32.6975 41.4311 32.7059 41.4525 32.7151 41.4728C33.5341 43.3011 34.6807 44.308 35.9436 44.308C37.2065 44.308 38.3531 43.3011 39.1721 41.4728C39.1812 41.4525 39.1896 41.4311 39.1987 41.4106C39.2209 41.4148 39.2432 41.4199 39.265 41.4239C39.715 41.5086 40.1717 41.5528 40.6295 41.5559C41.9189 41.5559 42.8911 41.1487 43.4289 40.3639C43.7332 39.9204 43.8766 39.3742 43.8536 38.7652C44.2448 38.5312 44.5382 38.1635 44.6794 37.7301C44.8206 37.2966 44.8001 36.8267 44.6218 36.4071C44.4435 35.9876 44.1193 35.6468 43.7092 35.4477C43.2991 35.2486 42.8308 35.2046 42.3908 35.324C42.3686 35.2938 42.3463 35.2637 42.324 35.2336C42.5416 34.9453 42.7397 34.6561 42.916 34.3677ZM38.4598 40.0102C38.0568 39.8904 37.6602 39.7505 37.2713 39.5908C37.6597 39.3628 38.0452 39.1181 38.4277 38.8566C38.5649 38.7625 38.7002 38.6671 38.8335 38.5701C38.737 39.057 38.6122 39.5379 38.4598 40.0102ZM33.4258 40.0092C33.2741 39.5372 33.15 39.0567 33.0541 38.5703C33.1877 38.6669 33.3229 38.7623 33.4598 38.8566C33.8413 39.1181 34.2267 39.3628 34.616 39.5907C34.2265 39.75 33.8293 39.8898 33.4258 40.0092V40.0092ZM31.5572 35.7293C31.3972 35.5652 31.2438 35.4002 31.097 35.2342C31.2435 35.0685 31.3966 34.9037 31.5563 34.7398C31.5522 34.9034 31.5501 35.0677 31.5501 35.2329C31.5504 35.3991 31.5531 35.5645 31.5572 35.7293V35.7293ZM34.1312 37.8771C33.668 37.5596 33.2271 37.2266 32.8119 36.883C32.7633 36.3464 32.7377 35.7944 32.7377 35.2329C32.7377 34.6714 32.7628 34.1206 32.8111 33.5852C33.2282 33.2393 33.6695 32.905 34.1309 32.5886C34.7129 32.1886 35.318 31.8234 35.943 31.4948C36.5683 31.8235 37.1737 32.1888 37.7561 32.5886C38.2177 32.905 38.6587 33.2392 39.0755 33.5847C39.124 34.1207 39.1492 34.672 39.1492 35.2324C39.1492 35.8048 39.1235 36.3558 39.0758 36.8821C38.6605 37.2258 38.2194 37.5589 37.7561 37.8766C37.1742 38.2766 36.5693 38.6419 35.9444 38.9706C35.3191 38.6419 34.7137 38.2768 34.1312 37.8771V37.8771ZM33.4246 30.4545C33.8287 30.5745 34.2265 30.7149 34.6165 30.875C34.2281 31.103 33.8427 31.3477 33.4601 31.6092C33.3223 31.7037 33.1867 31.8002 33.0519 31.8976C33.1478 31.4097 33.2723 30.9278 33.4246 30.4545V30.4545ZM38.4621 30.457C38.6137 30.929 38.7378 31.4095 38.8337 31.8959C38.7001 31.7991 38.5648 31.7035 38.4279 31.6092C38.0466 31.3478 37.6602 31.1031 37.272 30.8752C37.6613 30.7159 38.0584 30.5764 38.4618 30.457H38.4621ZM40.3306 34.7389C40.4905 34.9029 40.6438 35.0679 40.7907 35.2339C40.6441 35.4 40.4907 35.5652 40.3306 35.7293C40.3347 35.5645 40.3373 35.3991 40.3373 35.2329C40.3373 35.0666 40.3344 34.9028 40.3303 34.7389H40.3306ZM42.4496 30.7732C42.8769 31.3967 42.6776 32.481 41.9028 33.7484C41.7919 33.9298 41.6713 34.1117 41.5413 34.294C41.1212 33.8342 40.6755 33.3983 40.2063 32.9887C40.0988 32.0395 39.9031 31.1023 39.6219 30.1894C41.0069 29.9666 42.0419 30.1785 42.4496 30.7732ZM38.0279 29.3465C37.3135 29.5672 36.6168 29.8416 35.9437 30.1674C35.3721 29.8915 34.7838 29.6517 34.1822 29.4494C34.4496 29.487 34.7219 29.4668 34.9809 29.3901C35.2398 29.3134 35.4792 29.1819 35.6829 29.0047C35.8867 28.8275 36.05 28.6085 36.1618 28.3627C36.2736 28.1169 36.3314 27.85 36.3311 27.5799C36.3311 27.5225 36.328 27.4658 36.3231 27.4096C36.9303 27.6128 37.5329 28.2922 38.0279 29.3465V29.3465ZM34.4432 26.8794C34.5817 26.8794 34.7172 26.9205 34.8324 26.9974C34.9476 27.0744 35.0374 27.1838 35.0904 27.3118C35.1434 27.4398 35.1573 27.5806 35.1303 27.7165C35.1033 27.8524 35.0366 27.9772 34.9386 28.0752C34.8406 28.1732 34.7158 28.2399 34.5799 28.2669C34.4441 28.2939 34.3032 28.2801 34.1752 28.2271C34.0472 28.1741 33.9378 28.0843 33.8608 27.9691C33.7839 27.8539 33.7428 27.7184 33.7428 27.5799C33.743 27.3942 33.8168 27.2162 33.9481 27.0849C34.0794 26.9536 34.2574 26.8797 34.4431 26.8794H34.4432ZM29.9847 33.7484C29.2099 32.481 29.0107 31.3966 29.4379 30.7732C29.8509 30.1708 30.8778 29.9603 32.2657 30.1865C31.9842 31.1007 31.7883 32.039 31.6805 32.9894C31.2115 33.3989 30.766 33.8344 30.3459 34.2939C30.2164 34.1117 30.0959 33.9299 29.9846 33.7484H29.9847ZM29.1164 36.4457C29.2549 36.4457 29.3903 36.4868 29.5055 36.5637C29.6207 36.6407 29.7105 36.7501 29.7636 36.8781C29.8166 37.0061 29.8305 37.1469 29.8035 37.2828C29.7764 37.4187 29.7097 37.5435 29.6118 37.6415C29.5138 37.7394 29.389 37.8062 29.2531 37.8332C29.1172 37.8602 28.9764 37.8464 28.8484 37.7933C28.7204 37.7403 28.611 37.6506 28.534 37.5354C28.457 37.4202 28.416 37.2847 28.416 37.1462C28.4162 36.9605 28.49 36.7825 28.6212 36.6512C28.7525 36.5199 28.9304 36.446 29.1161 36.4457H29.1164ZM31.2607 40.3636C30.3849 40.3636 29.7398 40.1326 29.4382 39.6926C29.3086 39.4952 29.2344 39.2667 29.2235 39.0308C29.4891 39.016 29.7486 38.9452 29.9849 38.823C30.2212 38.7009 30.4289 38.5301 30.5945 38.3219C30.7601 38.1137 30.8797 37.8728 30.9456 37.6151C31.0115 37.3574 31.0221 37.0886 30.9767 36.8265C31.202 37.047 31.437 37.2643 31.6818 37.4787C31.7894 38.4275 31.985 39.3642 32.2663 40.2767C31.9338 40.3323 31.5975 40.3614 31.2604 40.3636H31.2607ZM35.9439 43.1206C35.2131 43.1206 34.4579 42.3932 33.8597 41.1193C34.5741 40.8986 35.2708 40.6242 35.9439 40.2983C36.6158 40.6236 37.3114 40.8977 38.0245 41.1183C37.425 42.3871 36.6649 43.1206 35.9437 43.1206H35.9439ZM39.6211 40.2791C39.9027 39.3659 40.0986 38.4284 40.2063 37.4788C40.5023 37.2199 40.7852 36.9559 41.0524 36.6879C40.9871 36.9483 40.9782 37.2197 41.0262 37.4838C41.0742 37.748 41.178 37.9989 41.3307 38.2197C41.4834 38.4406 41.6815 38.6263 41.9117 38.7645C42.1419 38.9027 42.3989 38.9902 42.6656 39.0211C42.6558 39.2604 42.5811 39.4925 42.4495 39.6926C42.0365 40.2951 41.0091 40.5056 39.6209 40.2791H39.6211ZM43.5843 37.1462C43.5843 37.2847 43.5432 37.4202 43.4663 37.5354C43.3893 37.6506 43.2799 37.7403 43.1519 37.7933C43.0239 37.8464 42.8831 37.8602 42.7472 37.8332C42.6113 37.8062 42.4865 37.7394 42.3885 37.6415C42.2906 37.5435 42.2239 37.4187 42.1968 37.2828C42.1698 37.1469 42.1837 37.0061 42.2367 36.8781C42.2898 36.7501 42.3795 36.6407 42.4947 36.5637C42.61 36.4868 42.7454 36.4457 42.8839 36.4457C43.0696 36.4459 43.2477 36.5198 43.379 36.6511C43.5103 36.7824 43.5841 36.9605 43.5843 37.1462V37.1462Z" fill="#8D8D8D"/>
<path d="M35.9437 33.3449C35.5703 33.3449 35.2053 33.4556 34.8948 33.6631C34.5843 33.8705 34.3423 34.1654 34.1994 34.5104C34.0565 34.8553 34.0191 35.2349 34.092 35.6012C34.1648 35.9674 34.3446 36.3038 34.6086 36.5679C34.8727 36.8319 35.2091 37.0117 35.5753 37.0846C35.9415 37.1574 36.3212 37.1201 36.6661 36.9772C37.0111 36.8343 37.306 36.5923 37.5135 36.2818C37.7209 35.9713 37.8316 35.6063 37.8316 35.2329C37.8311 34.7324 37.632 34.2525 37.2781 33.8985C36.9242 33.5446 36.4443 33.3455 35.9437 33.3449V33.3449ZM35.9437 35.9333C35.8052 35.9333 35.6698 35.8922 35.5545 35.8153C35.4393 35.7383 35.3496 35.6289 35.2965 35.5009C35.2435 35.3729 35.2296 35.2321 35.2566 35.0962C35.2837 34.9603 35.3504 34.8355 35.4484 34.7375C35.5463 34.6395 35.6711 34.5728 35.807 34.5458C35.9429 34.5188 36.0838 34.5327 36.2118 34.5857C36.3398 34.6387 36.4492 34.7285 36.5261 34.8437C36.6031 34.9589 36.6442 35.0944 36.6441 35.2329C36.6439 35.4186 36.57 35.5966 36.4387 35.7279C36.3074 35.8592 36.1294 35.9331 35.9437 35.9333V35.9333Z" fill="#8D8D8D"/>
</svg>
