<svg width="39" height="39" viewBox="0 0 39 39" fill="none" xmlns="http://www.w3.org/2000/svg">
<rect width="39" height="39" rx="5" fill="#5F5F5F"/>
<rect width="39" height="39" rx="5" fill="#5EBEE1"/>
<path d="M29.3956 9.0835L6.52894 17.9644C5.79187 18.255 5.83472 19.3149 6.59751 19.5372L12.4084 21.2467L14.5768 28.1104C14.7997 28.8284 15.7167 29.0421 16.2395 28.5036L19.2479 25.4435L25.1445 29.76C25.8644 30.29 26.8929 29.8968 27.0729 29.025L30.9726 10.4084C31.1697 9.50233 30.2698 8.7416 29.3956 9.0835ZM26.5329 13.212L15.9139 22.5801C15.811 22.6741 15.7424 22.8023 15.7253 22.9391L15.3139 26.5633C15.2968 26.6829 15.1339 26.7 15.0996 26.5804L13.4198 21.1697C13.3426 20.9219 13.4455 20.6569 13.6683 20.5201L26.2073 12.7589C26.4901 12.5965 26.7901 12.9897 26.5329 13.212Z" fill="white"/>
</svg>
