<svg width="24" height="24" viewBox="0 0 24 24" fill="none" xmlns="http://www.w3.org/2000/svg">
<path d="M0.749981 7.49996H23.25C23.664 7.49996 23.9999 7.16393 23.9999 6.74998C23.9999 6.33596 23.6639 6 23.25 6H0.749981C0.335964 6 0 6.33603 0 6.74998C0 7.16393 0.336026 7.49996 0.749981 7.49996Z" fill="white"/>
<path d="M23.25 11.25H0.749981C0.335964 11.25 0 11.586 0 12C0 12.4139 0.336026 12.75 0.749981 12.75H23.25C23.664 12.75 23.9999 12.4139 23.9999 12C23.9999 11.586 23.664 11.25 23.25 11.25Z" fill="white"/>
<path d="M23.2499 16.5H8.24996C7.83595 16.5 7.49998 16.836 7.49998 17.25C7.49998 17.664 7.83601 18 8.24996 18H23.2499C23.664 18 23.9999 17.6639 23.9999 17.25C24 16.836 23.664 16.5 23.2499 16.5Z" fill="white"/>
</svg>
