<svg width="39" height="39" viewBox="0 0 39 39" fill="none" xmlns="http://www.w3.org/2000/svg">
<rect width="39" height="39" rx="5" fill="#5F5F5F"/>
<rect width="39" height="39" rx="5" fill="#1DA1F2"/>
<path d="M15.6537 30.812C24.848 30.812 29.879 23.1875 29.879 16.5868C29.879 16.3723 29.879 16.1578 29.8692 15.9433C30.8442 15.2413 31.6925 14.354 32.3652 13.3498C31.4682 13.7495 30.503 14.0127 29.489 14.1395C30.5225 13.5252 31.3122 12.5405 31.6925 11.3705C30.7272 11.9457 29.6547 12.3553 28.514 12.5795C27.5975 11.6045 26.3007 11 24.8675 11C22.1082 11 19.8657 13.2425 19.8657 16.0017C19.8657 16.3917 19.9145 16.772 19.9925 17.1425C15.839 16.9377 12.1535 14.939 9.68675 11.9165C9.25775 12.6575 9.014 13.5155 9.014 14.432C9.014 16.1675 9.90125 17.6982 11.237 18.5952C10.418 18.566 9.64775 18.3417 8.975 17.9712V18.0395C8.975 20.4575 10.7007 22.4855 12.9822 22.9438C12.563 23.0608 12.1242 23.1193 11.666 23.1193C11.3442 23.1193 11.0322 23.09 10.73 23.0315C11.3637 25.0205 13.2162 26.4635 15.4002 26.5025C13.6842 27.848 11.5295 28.6475 9.1895 28.6475C8.78975 28.6475 8.39 28.628 8 28.5793C10.2035 29.9832 12.836 30.812 15.6537 30.812Z" fill="white"/>
</svg>
