<svg width="39" height="39" viewBox="0 0 39 39" fill="none" xmlns="http://www.w3.org/2000/svg">
<rect width="39" height="39" rx="5" fill="#5F5F5F"/>
<rect width="39" height="39" rx="5" fill="#37DD54"/>
<path fill-rule="evenodd" clip-rule="evenodd" d="M26.3567 21.8068C26.0094 21.633 24.3016 20.7929 23.9831 20.677C23.6647 20.5612 23.4332 20.5032 23.2017 20.8508C22.97 21.1985 22.3044 21.9806 22.1017 22.2124C21.8991 22.4441 21.6965 22.4731 21.3492 22.2992C21.0017 22.1255 19.8826 21.7588 18.5558 20.5757C17.5232 19.655 16.826 18.5178 16.6234 18.1701C16.4208 17.8225 16.6018 17.6346 16.7757 17.4614C16.932 17.3059 17.1231 17.0559 17.2967 16.8531C17.4704 16.6503 17.5283 16.5055 17.6441 16.2737C17.7599 16.042 17.702 15.8392 17.6151 15.6654C17.5283 15.4915 16.8336 13.7824 16.5442 13.0871C16.2623 12.41 15.9758 12.5016 15.7626 12.491C15.5603 12.4809 15.3285 12.4788 15.0969 12.4788C14.8653 12.4788 14.489 12.5657 14.1706 12.9133C13.8522 13.2609 12.9549 14.1011 12.9549 15.8102C12.9549 17.5194 14.1995 19.1706 14.3732 19.4024C14.5469 19.6342 16.8227 23.1416 20.3071 24.6458C21.1359 25.0036 21.7829 25.2172 22.2874 25.3773C23.1195 25.6415 23.8768 25.6043 24.4753 25.5148C25.1426 25.4151 26.5304 24.6747 26.8199 23.8637C27.1093 23.0525 27.1093 22.3572 27.0224 22.2124C26.9357 22.0675 26.7041 21.9806 26.3567 21.8068ZM20.0187 30.4579H20.014C17.9406 30.457 15.9071 29.9003 14.133 28.8478L13.7111 28.5974L9.33785 29.7443L10.5052 25.4818L10.2304 25.0449C9.07376 23.2057 8.46294 21.08 8.46378 18.8975C8.46629 12.5287 13.6498 7.34716 20.0233 7.34716C23.1096 7.34838 26.0107 8.55151 28.1922 10.7348C30.3738 12.9181 31.5746 15.8204 31.5734 18.9068C31.5707 25.276 26.3874 30.4579 20.0187 30.4579ZM29.8526 9.07573C27.228 6.44887 23.7375 5.00152 20.0186 5C12.3561 5 6.11967 11.234 6.11662 18.8966C6.11563 21.346 6.7557 23.737 7.97224 25.8444L6 33.046L13.3696 31.1136C15.4001 32.2207 17.6863 32.8041 20.013 32.8051H20.0187C27.6806 32.8051 33.9174 26.5703 33.9206 18.9077C33.922 15.1942 32.4774 11.7026 29.8526 9.07573Z" fill="white"/>
</svg>
